<svg width="35" height="41" viewBox="0 0 35 41" fill="none" xmlns="http://www.w3.org/2000/svg">
<path fill-rule="evenodd" clip-rule="evenodd" d="M8.23529 4.1C8.23529 1.83563 10.0788 0 12.3529 0H23.8531C24.9451 0 25.9924 0.431955 26.7647 1.20087L33.7939 8.2C34.5662 8.96889 35 10.0117 35 11.0991V28.7C35 30.9644 33.1565 32.8 30.8824 32.8H26.7647V36.9C26.7647 39.1644 24.9212 41 22.6471 41H4.11765C1.84353 41 0 39.1644 0 36.9V12.3C0 10.0356 1.84353 8.2 4.11765 8.2H8.23529V4.1ZM30.8824 28.7H12.3529V4.1H20.5882V11.275C20.5882 12.9733 21.9709 14.35 23.6765 14.35H30.8824V28.7ZM30.0296 10.25H24.7059V4.94913L30.0296 10.25ZM8.23529 28.7V12.3H4.11765V36.9H22.6471V32.8H12.3529C10.0788 32.8 8.23529 30.9644 8.23529 28.7Z" fill="#323378"/>
</svg>
