<svg width="35" height="35" viewBox="0 0 35 35" fill="none" xmlns="http://www.w3.org/2000/svg">
<path d="M1.94444 25.2778C2.94162 25.2778 3.76348 26.0284 3.87581 26.9955L3.88889 27.2222V31.1111H7.77778C8.85166 31.1111 9.72222 31.9816 9.72222 33.0556C9.72222 34.0528 8.97158 34.8746 8.00454 34.9869L7.77778 35H3.88889C1.83874 35 0.159123 33.4136 0.0106668 31.4013L0 31.1111V27.2222C0 26.1483 0.870567 25.2778 1.94444 25.2778ZM33.0556 25.2778C34.1295 25.2778 35 26.1483 35 27.2222V31.1111C35 33.2589 33.2589 35 31.1111 35H27.2222C26.1483 35 25.2778 34.1295 25.2778 33.0556C25.2778 31.9816 26.1483 31.1111 27.2222 31.1111H31.1111V27.2222C31.1111 26.1483 31.9816 25.2778 33.0556 25.2778ZM22.9444 21.1103C23.7111 20.3585 24.9424 20.3708 25.6941 21.1377C26.4458 21.9044 26.4336 23.1356 25.6667 23.8873C23.5643 25.9482 20.679 27.2224 17.5 27.2224C14.321 27.2224 11.4356 25.9482 9.33326 23.8873C8.56639 23.1356 8.55416 21.9044 9.30592 21.1377C10.0577 20.3708 11.2888 20.3585 12.0556 21.1103C13.4606 22.4875 15.3796 23.3335 17.5 23.3335C19.6204 23.3335 21.5394 22.4875 22.9444 21.1103ZM10.6944 9.72222C12.3053 9.72222 13.6111 11.0281 13.6111 12.6389C13.6111 14.2497 12.3053 15.5556 10.6944 15.5556C9.08361 15.5556 7.77778 14.2497 7.77778 12.6389C7.77778 11.0281 9.08361 9.72222 10.6944 9.72222ZM24.3056 9.72222C25.9163 9.72222 27.2222 11.0281 27.2222 12.6389C27.2222 14.2497 25.9163 15.5556 24.3056 15.5556C22.6948 15.5556 21.3889 14.2497 21.3889 12.6389C21.3889 11.0281 22.6948 9.72222 24.3056 9.72222ZM7.77778 0C8.85166 0 9.72222 0.870567 9.72222 1.94444C9.72222 3.01832 8.85166 3.88889 7.77778 3.88889H3.88889V7.77778C3.88889 8.85166 3.01832 9.72222 1.94444 9.72222C0.870567 9.72222 0 8.85166 0 7.77778V3.88889C0 1.74111 1.74111 0 3.88889 0H7.77778ZM31.1111 0C33.2589 0 35 1.74111 35 3.88889V7.77778C35 8.85166 34.1295 9.72222 33.0556 9.72222C31.9816 9.72222 31.1111 8.85166 31.1111 7.77778V3.88889H27.2222C26.1483 3.88889 25.2778 3.01832 25.2778 1.94444C25.2778 0.870567 26.1483 0 27.2222 0H31.1111Z" fill="#323378"/>
</svg>
