<svg width="35" height="35" viewBox="0 0 35 35" fill="none" xmlns="http://www.w3.org/2000/svg">
<path fill-rule="evenodd" clip-rule="evenodd" d="M22.6129 21C27.4162 21 31.3101 24.9175 31.3101 29.75V33.25C31.3101 34.2165 30.5314 35 29.5707 35C28.61 35 27.8312 34.2165 27.8312 33.25V29.75C27.8312 26.8504 25.495 24.5 22.6129 24.5H8.69726C5.81525 24.5 3.4789 26.8504 3.4789 29.75V33.25C3.4789 34.2165 2.70012 35 1.73945 35C0.778788 35 0 34.2165 0 33.25V29.75C0 24.9175 3.8939 21 8.69726 21H22.6129ZM32.0305 12.3922C32.7099 11.7088 33.8111 11.7088 34.4906 12.3922C35.1176 13.0231 35.1658 14.0158 34.6353 14.7023L34.4906 14.8671L29.5705 19.8168C28.9435 20.4476 27.9568 20.4962 27.2744 19.9624L27.1106 19.8168L24.6506 17.342C23.9714 16.6586 23.9714 15.5505 24.6506 14.8671C25.2777 14.2363 26.2644 14.1878 26.9467 14.7216L27.1106 14.8671L28.3406 16.1045L32.0305 12.3922ZM15.6551 0C20.4584 0 24.3523 3.91752 24.3523 8.75C24.3523 13.5825 20.4584 17.5 15.6551 17.5C10.8517 17.5 6.95781 13.5825 6.95781 8.75C6.95781 3.91752 10.8517 0 15.6551 0ZM15.6551 3.5C12.773 3.5 10.4367 5.85051 10.4367 8.75C10.4367 11.6495 12.773 14 15.6551 14C18.5372 14 20.8734 11.6495 20.8734 8.75C20.8734 5.85051 18.5372 3.5 15.6551 3.5Z" fill="#323378"/>
</svg>
